<svg id="Capa_1" enable-background="new 0 0 512 512" height="512" viewBox="0 0 512 512" width="512" xmlns="http://www.w3.org/2000/svg"><g><g><g><path d="m181.638 402.871c-4.143 0-7.5-3.357-7.5-7.5v-11.94c0-4.143 3.357-7.5 7.5-7.5s7.5 3.357 7.5 7.5v11.94c0 4.143-3.358 7.5-7.5 7.5z"/></g><g><path d="m256 439.162c-17.136 0-31.076-15.199-31.076-33.882 0-23.439 21.777-23.439 31.076-23.439s31.076 0 31.076 23.439c0 18.683-13.94 33.882-31.076 33.882zm0-42.321c-15.426 0-16.076 2.587-16.076 8.439 0 10.411 7.212 18.882 16.076 18.882s16.076-8.471 16.076-18.882c0-5.852-.65-8.439-16.076-8.439z"/></g><g><path d="m330.362 402.871c-4.143 0-7.5-3.357-7.5-7.5v-11.94c0-4.143 3.357-7.5 7.5-7.5s7.5 3.357 7.5 7.5v11.94c0 4.143-3.357 7.5-7.5 7.5z"/></g></g><path d="m438.938 321.221c14.966-14.385 23.573-34.241 23.573-55.535 0-42.542-34.61-77.153-77.153-77.153h-12.428c6.438-9.392 9.976-20.564 9.976-32.303 0-29.381-22.251-53.653-50.785-56.877 7.205-12.885 10.983-27.322 10.983-42.359v-29.593c0-15.109-12.291-27.401-27.401-27.401h-39.802c-48.029 0-87.104 39.075-87.104 87.104v11.874h-2.451c-31.568 0-57.252 25.684-57.252 57.253 0 11.714 3.538 22.9 9.979 32.302h-12.43c-42.543 0-77.153 34.611-77.153 77.154 0 21.248 8.614 41.135 23.577 55.533-41.329 11.131-71.838 48.929-71.838 93.725 0 53.517 43.539 97.055 97.055 97.055h315.432c53.517 0 97.056-43.538 97.056-97.055-.001-44.794-30.507-82.591-71.834-93.724zm-294.844-164.991c0-23.298 18.954-42.252 42.252-42.252h37.896c4.143 0 7.5-3.357 7.5-7.5s-3.357-7.5-7.5-7.5h-20.445v-11.874c0-39.759 32.346-72.104 72.104-72.104h39.802c6.838 0 12.401 5.563 12.401 12.401v29.594c0 15.222-4.668 29.698-13.494 41.983h-60.517c-4.143 0-7.5 3.357-7.5 7.5s3.357 7.5 7.5 7.5h71.561c23.298 0 42.252 18.955 42.252 42.253 0 12.557-5.47 24.241-15.038 32.302h-193.737c-9.56-8.061-15.037-19.775-15.037-32.303zm269.622 340.77h-315.432c-45.246 0-82.056-36.81-82.056-82.055s36.81-82.055 82.056-82.055h214.228c4.143 0 7.5-3.357 7.5-7.5s-3.357-7.5-7.5-7.5h-214.228c-1.739 0-3.466.048-5.183.139-.023-.015-.044-.033-.067-.048-17.874-11.515-28.545-31.064-28.545-52.295 0-34.271 27.882-62.153 62.153-62.153h258.715c34.271 0 62.153 27.882 62.153 62.154 0 21.308-10.695 40.833-28.631 52.341-1.71-.09-3.431-.138-5.164-.138h-71.353c-4.143 0-7.5 3.357-7.5 7.5s3.357 7.5 7.5 7.5h71.353c45.246 0 82.056 36.81 82.056 82.055s-36.809 82.055-82.055 82.055z"/></g></svg>